<svg width="1181" height="935" viewBox="0 0 1181 935" fill="none" xmlns="http://www.w3.org/2000/svg">
<rect width="1181" height="935" fill="white"/>
<rect width="1181" height="935" fill="#E6E4FE"/>
<rect y="419" width="1181" height="516" fill="#7466D8"/>
<mask id="mask0_109_848" style="mask-type:alpha" maskUnits="userSpaceOnUse" x="0" y="0" width="1181" height="935">
<rect width="1181" height="935" fill="white"/>
</mask>
<g mask="url(#mask0_109_848)">
<circle cx="32" cy="419" r="73" fill="url(#paint0_linear_109_848)"/>
<circle cx="55" cy="55" r="55" transform="matrix(-1 0 0 1 1210 338)" fill="url(#paint1_linear_109_848)"/>
</g>
<circle cx="1028" cy="823" r="62" fill="url(#paint2_linear_109_848)"/>
<circle cx="425" cy="420" r="48" fill="url(#paint3_linear_109_848)"/>
<circle cx="815" cy="491" r="48" fill="url(#paint4_linear_109_848)"/>
<circle cx="62" cy="62" r="62" transform="matrix(-1 0 0 1 677 16)" fill="url(#paint5_linear_109_848)"/>
<circle cx="62" cy="62" r="62" transform="matrix(-1 0 0 1 439 712)" fill="url(#paint6_linear_109_848)"/>
<defs>
<linearGradient id="paint0_linear_109_848" x1="-15.3148" y1="356.815" x2="82" y2="480" gradientUnits="userSpaceOnUse">
<stop stop-color="#7466D8"/>
<stop offset="1" stop-color="white"/>
</linearGradient>
<linearGradient id="paint1_linear_109_848" x1="19.3519" y1="8.14815" x2="92.6712" y2="100.959" gradientUnits="userSpaceOnUse">
<stop stop-color="#7466D8"/>
<stop offset="1" stop-color="white"/>
</linearGradient>
<linearGradient id="paint2_linear_109_848" x1="987.815" y1="770.185" x2="1070.47" y2="874.808" gradientUnits="userSpaceOnUse">
<stop stop-color="#7466D8"/>
<stop offset="1" stop-color="white"/>
</linearGradient>
<linearGradient id="paint3_linear_109_848" x1="393.889" y1="379.111" x2="457.877" y2="460.11" gradientUnits="userSpaceOnUse">
<stop stop-color="#7466D8"/>
<stop offset="1" stop-color="white"/>
</linearGradient>
<linearGradient id="paint4_linear_109_848" x1="783.889" y1="450.111" x2="847.877" y2="531.11" gradientUnits="userSpaceOnUse">
<stop stop-color="#7466D8"/>
<stop offset="1" stop-color="white"/>
</linearGradient>
<linearGradient id="paint5_linear_109_848" x1="21.8148" y1="9.18518" x2="104.466" y2="113.808" gradientUnits="userSpaceOnUse">
<stop stop-color="#7466D8"/>
<stop offset="1" stop-color="white"/>
</linearGradient>
<linearGradient id="paint6_linear_109_848" x1="21.8148" y1="9.18518" x2="104.466" y2="113.808" gradientUnits="userSpaceOnUse">
<stop stop-color="#7466D8"/>
<stop offset="1" stop-color="white"/>
</linearGradient>
</defs>
</svg>
